<svg width="23" height="19" viewBox="0 0 23 19" fill="none" xmlns="http://www.w3.org/2000/svg">
<rect y="3.83737" width="20" height="15" rx="4" fill="#F4F2FF"/>
<rect x="3" y="7.83737" width="14" height="1" fill="#59585A"/>
<rect x="3" y="10.8374" width="14" height="1" fill="#59585A"/>
<rect x="3" y="13.8374" width="14" height="1" fill="#59585A"/>
<path d="M19.2019 0.946396C19.4534 0.617254 19.9241 0.554291 20.2532 0.805763L21.5479 1.79498C21.8771 2.04645 21.94 2.51714 21.6886 2.84628L17.4897 8.34197L15.0031 6.44209L19.2019 0.946396Z" fill="#F4F2FF" stroke="#302F32" stroke-width="0.5"/>
<path d="M14.7156 9.39556L14.872 6.97124L17.0136 8.60748L14.7156 9.39556Z" fill="#F4F2FF" stroke="#302F32" stroke-width="0.5"/>
<rect x="17.0261" y="4.87683" width="1.8147" height="0.453674" transform="rotate(37.3807 17.0261 4.87683)" fill="#302F32"/>
<rect x="18.1279" y="3.43484" width="1.8147" height="0.453674" transform="rotate(37.3807 18.1279 3.43484)" fill="#302F32"/>
<rect x="19.2297" y="1.99286" width="1.8147" height="0.453674" transform="rotate(37.3807 19.2297 1.99286)" fill="#302F32"/>
</svg>
