<svg width="31" height="22" viewBox="0 0 31 22" fill="none" xmlns="http://www.w3.org/2000/svg">
<path fill-rule="evenodd" clip-rule="evenodd" d="M29 1H2C1.44771 1 1 1.44772 1 2V19.8167L6.60743 7.78873L6.99768 6.95165L7.48525 7.73604L11.9177 14.8668L14.5197 10.8482L14.9801 10.1372L15.3801 10.8839L20.7994 21H29C29.5523 21 30 20.5523 30 20V2C30 1.44772 29.5523 1 29 1ZM2 21C1.85471 21 1.71666 20.969 1.59209 20.9133L7.12353 9.04835L11.4844 16.064L11.9005 16.7332L12.3288 16.0718L14.8987 12.1028L19.6649 21H2ZM2 0C0.89543 0 0 0.89543 0 2V20C0 21.1046 0.89543 22 2 22H29C30.1046 22 31 21.1046 31 20V2C31 0.895431 30.1046 0 29 0H2ZM25 6.5C25 7.32843 24.3284 8 23.5 8C22.6716 8 22 7.32843 22 6.5C22 5.67157 22.6716 5 23.5 5C24.3284 5 25 5.67157 25 6.5ZM26 6.5C26 7.88071 24.8807 9 23.5 9C22.1193 9 21 7.88071 21 6.5C21 5.11929 22.1193 4 23.5 4C24.8807 4 26 5.11929 26 6.5Z" fill="black"/>
</svg>
