<svg width="28" height="28" viewBox="0 0 28 28" fill="none" xmlns="http://www.w3.org/2000/svg">
<path fill-rule="evenodd" clip-rule="evenodd" d="M9.5 4.5C9.5 2.56701 11.067 1 13 1H15C16.933 1 18.5 2.567 18.5 4.5V7.5H9.5V4.5ZM8.5 7.5V4.5C8.5 2.01472 10.5147 0 13 0H15C17.4853 0 19.5 2.01472 19.5 4.5V7.5H22C23.1046 7.5 24 8.39543 24 9.5V25.5C24 26.6046 23.1046 27.5 22 27.5H6C4.89543 27.5 4 26.6046 4 25.5V9.5C4 8.39543 4.89543 7.5 6 7.5H8.5ZM18.5 8.5H6C5.44772 8.5 5 8.94772 5 9.5V25.5C5 26.0523 5.44772 26.5 6 26.5H22C22.5523 26.5 23 26.0523 23 25.5V9.5C23 8.94772 22.5523 8.5 22 8.5H19.5H18.5Z" fill="#302F32"/>
</svg>
